<svg width="56" height="56" viewBox="0 0 56 56" fill="none" xmlns="http://www.w3.org/2000/svg">
<rect width="56" height="56" rx="12" fill="#D7EFF9"/>
<path fill-rule="evenodd" clip-rule="evenodd" d="M16.625 26.8177H18.375V32.0754C18.375 33.7524 18.3769 34.9222 18.4954 35.805C18.6105 36.6627 18.8212 37.1171 19.1443 37.4407C19.4673 37.7642 19.9205 37.9749 20.7763 38.0901C21.6575 38.2088 22.8253 38.2107 24.5 38.2107H31.5C33.1747 38.2107 34.3425 38.2088 35.2236 38.0901C36.0795 37.9749 36.5327 37.7642 36.8557 37.4407C37.1788 37.1171 37.3895 36.6627 37.5046 35.805C37.6231 34.9222 37.625 33.7524 37.625 32.0754V26.8177H39.375V32.1394C39.375 33.7373 39.375 35.0251 39.2391 36.0378C39.0979 37.0891 38.796 37.9742 38.094 38.6772C37.3918 39.3805 36.5075 39.6831 35.4572 39.8245C34.4456 39.9607 33.1595 39.9607 31.5641 39.9607H24.4359C22.8405 39.9607 21.5543 39.9607 20.5428 39.8245C19.4924 39.6831 18.6081 39.3805 17.906 38.6772C17.204 37.9742 16.9021 37.0891 16.7609 36.0378C16.625 35.0251 16.625 33.7373 16.625 32.1393L16.625 26.8177Z" fill="#0095E6"/>
<path fill-rule="evenodd" clip-rule="evenodd" d="M21.2917 34.9698C21.2917 34.4865 21.6834 34.0948 22.1667 34.0948H26.8333C27.3166 34.0948 27.7083 34.4865 27.7083 34.9698C27.7083 35.453 27.3166 35.8448 26.8333 35.8448H22.1667C21.6834 35.8448 21.2917 35.453 21.2917 34.9698Z" fill="#0095E6"/>
<path fill-rule="evenodd" clip-rule="evenodd" d="M34.7355 16.0423C35.4198 16.0074 36.6116 16.2671 37.4733 17.1046C37.8567 17.4774 38.045 17.9297 38.1496 18.3289C38.2433 18.6862 38.284 19.0623 38.3158 19.356C38.3184 19.3807 38.321 19.4049 38.3236 19.4284C38.4295 20.396 38.7448 21.3224 39.536 22.336C41.1044 24.3453 40.6181 26.3726 39.5468 27.3751C38.7966 28.0772 36.9632 29.5102 34.7439 28.5955C33.8187 28.2142 33.1138 27.7089 32.6269 26.9902C32.576 26.9151 32.5281 26.8385 32.4831 26.7607C32.4006 26.8615 32.3149 26.9598 32.2264 27.055C31.5802 27.7505 30.7302 28.3455 29.769 28.6121C28.8693 28.8618 27.435 28.9867 26.0236 28.5036C25.116 28.1929 24.2399 27.6367 23.5397 26.7456C23.408 26.9665 23.2566 27.1794 23.0856 27.3798C22.3254 28.2705 21.1703 28.9162 19.6602 28.8819C19.6402 28.8814 19.6202 28.8803 19.6002 28.8785C19.1264 28.835 18.4655 28.6899 17.8267 28.3958C17.194 28.1045 16.4927 27.6246 16.078 26.8582C15.7263 26.2084 15.4031 25.5412 15.4709 24.7245C15.5355 23.9473 15.9422 23.177 16.5673 22.2362C17.1554 21.3511 17.4457 20.7096 17.5924 20.2398C17.7352 19.7824 17.752 19.4571 17.752 19.1717C17.752 18.6306 17.9272 17.8428 18.4609 17.1848C19.0271 16.4868 19.9316 16.0177 21.195 16.0761L34.7355 16.0423ZM35.4658 17.9003C35.1703 17.8026 34.9253 17.7834 34.8189 17.7903C34.8006 17.7916 34.7822 17.7922 34.7638 17.7922L21.177 17.8261C21.1613 17.8262 21.1456 17.8258 21.1299 17.825C20.3783 17.7863 20.0171 18.0443 19.82 18.2872C19.5868 18.5748 19.502 18.9494 19.502 19.1717C19.502 19.5691 19.4748 20.0827 19.2629 20.7614C19.0549 21.4275 18.6797 22.219 18.0249 23.2046C17.4072 24.1344 17.2392 24.5773 17.2149 24.8694C17.1939 25.1219 17.2679 25.3801 17.617 26.0253C17.784 26.3338 18.1132 26.6012 18.5585 26.8062C18.9836 27.0019 19.4323 27.1019 19.7306 27.1329C20.6545 27.1453 21.311 26.7633 21.7546 26.2437C22.2238 25.6938 22.4474 24.9943 22.4474 24.4591C22.4474 24.0287 22.7604 23.6623 23.1854 23.5949C23.6105 23.5275 24.0214 23.7792 24.1545 24.1885C24.674 25.7857 25.6322 26.5199 26.5904 26.8479C27.5964 27.1923 28.6607 27.1035 29.3011 26.9258C29.8832 26.7643 30.4658 26.379 30.9444 25.8638C31.4249 25.3467 31.7449 24.7587 31.8598 24.262C31.9559 23.846 32.3382 23.5602 32.7644 23.5856C33.1905 23.6111 33.5361 23.9403 33.5822 24.3647C33.6658 25.1361 33.825 25.6385 34.0757 26.0087C34.3181 26.3664 34.7049 26.6866 35.4107 26.9775C36.5706 27.4555 37.6431 26.7599 38.351 26.0974C38.7378 25.7354 39.1872 24.7332 38.1565 23.4128C37.1553 22.1302 36.7234 20.8933 36.584 19.6189L36.5799 19.5808C36.5439 19.2525 36.5162 18.9992 36.4569 18.7728C36.3983 18.5496 36.3269 18.4308 36.2534 18.3594C36.0356 18.1477 35.7539 17.9955 35.4658 17.9003Z" fill="#0095E6"/>
</svg>
