<svg width="56" height="56" viewBox="0 0 56 56" fill="none" xmlns="http://www.w3.org/2000/svg">
<rect width="56" height="56" rx="12" fill="#D7EFF9"/>
<path fill-rule="evenodd" clip-rule="evenodd" d="M34.4167 22.4583C33.9335 22.4583 33.5417 22.0666 33.5417 21.5833C33.5417 21.1001 33.9335 20.7083 34.4167 20.7083C34.8999 20.7083 35.2917 21.1001 35.2917 21.5833C35.2917 22.0666 34.8999 22.4583 34.4167 22.4583ZM31.7917 21.5833C31.7917 23.0331 32.967 24.2083 34.4167 24.2083C35.8664 24.2083 37.0417 23.0331 37.0417 21.5833C37.0417 20.1336 35.8664 18.9583 34.4167 18.9583C32.967 18.9583 31.7917 20.1336 31.7917 21.5833Z" fill="#0095E6"/>
<path d="M33.7536 15.4834C31.7099 15.3986 29.6504 15.5492 28.5811 15.6475C27.9209 15.7081 27.3049 15.9789 26.8129 16.4017C23.1361 19.5618 19.7865 22.842 16.584 26.4186C15.1261 28.047 15.0983 30.4942 16.4222 32.2041C18.5964 35.0121 20.9879 37.4014 23.7959 39.5755C25.5058 40.8995 27.9531 40.8739 29.5814 39.416C33.1581 36.2135 36.4382 32.8641 39.5983 29.1872C40.0213 28.6952 40.2919 28.0791 40.3526 27.419C40.4508 26.3496 40.6014 24.2902 40.5166 22.2464C40.4743 21.2246 40.3749 20.2086 40.1657 19.2979C39.9566 18.3871 39.6612 17.5629 39.0492 16.9509C38.4371 16.3388 37.6129 16.0435 36.7022 15.8343C35.7914 15.6252 34.7755 15.5258 33.7536 15.4834ZM33.6807 17.2311C34.6345 17.2707 35.5629 17.3671 36.3103 17.5388C37.0576 17.7104 37.6044 17.9807 37.8119 18.1882C38.0194 18.3956 38.2897 18.9424 38.4613 19.6898C38.6329 20.4372 38.7294 21.3656 38.7689 22.3194C38.848 24.2269 38.7037 26.2339 38.6094 27.2595C38.583 27.5469 38.4671 27.8162 38.2699 28.0456C35.1571 31.6673 31.9356 34.9601 28.4147 38.1126C27.4288 38.9954 25.9338 39.0167 24.8692 38.1924C22.1715 36.1037 19.8964 33.8286 17.8077 31.1309C16.9833 30.0662 17.0046 28.5712 17.8874 27.5853C21.0399 24.0645 24.3329 20.8428 27.9545 17.7302C28.1841 17.5328 28.4532 17.417 28.7406 17.3906C29.7661 17.2964 31.7732 17.152 33.6807 17.2311Z" fill="#0095E6"/>
<path fill-rule="evenodd" clip-rule="evenodd" d="M30.9528 25.032C31.2945 25.3737 31.2945 25.9278 30.9528 26.2695L30.6829 26.5393C31.0577 27.2714 30.9964 28.0226 30.9683 28.3659C30.9648 28.4085 30.9617 28.4449 30.9602 28.4741C30.9346 28.9567 30.5225 29.3271 30.04 29.3013C29.5574 29.2756 29.187 28.8637 29.2127 28.381C29.2148 28.343 29.2169 28.3058 29.2188 28.2695C29.2485 27.7431 29.2679 27.3982 28.9408 27.0992C28.8222 26.9907 28.629 26.8639 28.3098 26.7514C27.9779 26.6344 27.5287 26.7632 27.2474 27.0989C27.1185 27.2526 27.0554 27.4182 27.0501 27.5738C27.0453 27.7201 27.0888 27.9238 27.2895 28.1734C27.435 28.3542 27.5727 28.5054 27.7142 28.6608C27.7203 28.6676 27.7263 28.6742 27.7324 28.6809C27.8722 28.8344 28.0347 29.0128 28.174 29.2058C28.4947 29.6497 28.6804 30.1513 28.6446 30.8459C28.6135 31.4509 28.3112 31.9864 27.931 32.387C27.5441 32.7944 27.0265 33.1191 26.4452 33.2977C25.6594 33.5393 24.8584 33.3928 24.2014 33.0209L23.9612 33.2611C23.6195 33.6027 23.0655 33.6027 22.7238 33.2611C22.3821 32.9194 22.3821 32.3653 22.7238 32.0236L22.9681 31.7793C22.5748 31.0778 22.5791 30.448 22.5809 30.1715C22.5811 30.1407 22.5813 30.1144 22.5809 30.0927C22.5719 29.6095 22.9563 29.2105 23.4395 29.2016C23.9226 29.1926 24.3216 29.5769 24.3306 30.0601C24.3316 30.1102 24.3316 30.1551 24.3317 30.1968C24.3318 30.3351 24.3319 30.4388 24.3639 30.5849C24.3999 30.7493 24.4816 30.963 24.6989 31.2057C25.0495 31.5975 25.5528 31.7413 25.9309 31.625C26.2297 31.5331 26.4859 31.3674 26.6617 31.1822C26.844 30.9902 26.8931 30.8307 26.897 30.756C26.911 30.4842 26.8575 30.3718 26.7554 30.2306C26.6835 30.1309 26.5886 30.0241 26.4383 29.8589C26.4303 29.8501 26.4222 29.8412 26.414 29.8321C26.2759 29.6807 26.1061 29.494 25.9262 29.2705C25.49 28.7286 25.2809 28.1224 25.3012 27.5154C25.3211 26.9177 25.561 26.3864 25.9063 25.9746C26.5733 25.1789 27.7575 24.7013 28.8916 25.101C29.081 25.1677 29.2571 25.2431 29.4205 25.3269L29.7154 25.032C30.0571 24.6903 30.611 24.6903 30.9528 25.032Z" fill="#0095E6"/>
</svg>
