<svg width="56" height="56" viewBox="0 0 56 56" fill="none" xmlns="http://www.w3.org/2000/svg">
<rect width="56" height="56" rx="12" fill="#D7EFF9"/>
<path fill-rule="evenodd" clip-rule="evenodd" d="M17.5 16.625C17.9833 16.625 18.375 17.0168 18.375 17.5L18.375 30.3333C18.375 32.283 18.3769 33.6571 18.5167 34.6972C18.6531 35.7122 18.9064 36.277 19.3147 36.6854C19.723 37.0936 20.2878 37.3469 21.3027 37.4833C22.3428 37.6231 23.717 37.625 25.6667 37.625L38.5 37.625C38.9832 37.625 39.375 38.0168 39.375 38.5C39.375 38.9832 38.9832 39.375 38.5 39.375L25.6016 39.375C23.7319 39.375 22.2398 39.375 21.0696 39.2177C19.8606 39.0552 18.8649 38.7104 18.0773 37.9228C17.2896 37.1351 16.9448 36.1394 16.7823 34.9304C16.625 33.7602 16.625 32.268 16.625 30.3984L16.625 17.5C16.625 17.0168 17.0168 16.625 17.5 16.625Z" fill="#0095E6"/>
<path fill-rule="evenodd" clip-rule="evenodd" d="M29.1667 24.7917C29.6499 24.7917 30.0417 25.1834 30.0417 25.6667L30.0417 38.5C30.0417 38.9832 29.6499 39.375 29.1667 39.375C28.6834 39.375 28.2917 38.9832 28.2917 38.5L28.2917 25.6667C28.2917 25.1834 28.6834 24.7917 29.1667 24.7917Z" fill="#0095E6"/>
<path fill-rule="evenodd" clip-rule="evenodd" d="M35 28.2917C35.4832 28.2917 35.875 28.6834 35.875 29.1667L35.875 38.5C35.875 38.9833 35.4832 39.375 35 39.375C34.5168 39.375 34.125 38.9833 34.125 38.5L34.125 29.1667C34.125 28.6834 34.5168 28.2917 35 28.2917Z" fill="#0095E6"/>
<path fill-rule="evenodd" clip-rule="evenodd" d="M23.3333 28.2917C23.8166 28.2917 24.2083 28.6834 24.2083 29.1667L24.2083 37.3333C24.2083 37.8166 23.8166 38.2083 23.3333 38.2083C22.8501 38.2083 22.4583 37.8166 22.4583 37.3333L22.4583 29.1667C22.4583 28.6834 22.8501 28.2917 23.3333 28.2917Z" fill="#0095E6"/>
<path fill-rule="evenodd" clip-rule="evenodd" d="M25.1107 21.0498C27.2076 18.2612 31.1258 18.2612 33.2226 21.0498C33.827 21.8536 34.5644 22.1986 35.4325 22.3501C36.1442 22.4744 36.879 22.4633 37.7002 22.451C37.9577 22.4471 38.2236 22.4431 38.5 22.4431C38.9832 22.4431 39.375 22.8348 39.375 23.3181C39.375 23.8013 38.9832 24.1931 38.5 24.1931C38.2887 24.1931 38.0657 24.1967 37.8346 24.2004C36.9837 24.2141 36.0227 24.2296 35.1315 24.0741C33.9315 23.8646 32.7539 23.3384 31.8239 22.1015C30.4271 20.2439 27.9062 20.2439 26.5094 22.1016C25.5795 23.3384 24.4019 23.8646 23.2018 24.0741C22.3107 24.2296 21.3496 24.2141 20.4988 24.2004C20.2676 24.1967 20.0446 24.1931 19.8333 24.1931H17.5C17.0168 24.1931 16.625 23.8013 16.625 23.3181C16.625 22.8348 17.0168 22.4431 17.5 22.4431H19.8333C20.1097 22.4431 20.3757 22.4471 20.6332 22.451C21.4543 22.4633 22.1892 22.4744 22.9009 22.3501C23.769 22.1986 24.5064 21.8536 25.1107 21.0498Z" fill="#0095E6"/>
</svg>
